<svg width="20" height="20" viewBox="0 0 20 20" fill="none" xmlns="http://www.w3.org/2000/svg">
<path d="M10 5.41667C11.5323 5.41157 13.0349 5.83899 14.3351 6.64977C15.6353 7.46056 16.6803 8.6218 17.35 10C15.975 12.8083 13.1667 14.5833 10 14.5833C6.83333 14.5833 4.025 12.8083 2.65 10C3.31968 8.6218 4.36469 7.46056 5.66489 6.64977C6.9651 5.83899 8.46772 5.41157 10 5.41667ZM10 3.75C5.83333 3.75 2.27499 6.34167 0.833328 10C2.27499 13.6583 5.83333 16.25 10 16.25C14.1667 16.25 17.725 13.6583 19.1667 10C17.725 6.34167 14.1667 3.75 10 3.75ZM10 7.91667C10.5525 7.91667 11.0824 8.13616 11.4731 8.52686C11.8638 8.91756 12.0833 9.44747 12.0833 10C12.0833 10.5525 11.8638 11.0824 11.4731 11.4731C11.0824 11.8638 10.5525 12.0833 10 12.0833C9.44746 12.0833 8.91756 11.8638 8.52686 11.4731C8.13616 11.0824 7.91666 10.5525 7.91666 10C7.91666 9.44747 8.13616 8.91756 8.52686 8.52686C8.91756 8.13616 9.44746 7.91667 10 7.91667ZM10 6.25C7.93333 6.25 6.25 7.93333 6.25 10C6.25 12.0667 7.93333 13.75 10 13.75C12.0667 13.75 13.75 12.0667 13.75 10C13.75 7.93333 12.0667 6.25 10 6.25Z" fill="#AD9A7C"/>
</svg>
