<svg width="20" height="20" viewBox="0 0 20 20" fill="none" xmlns="http://www.w3.org/2000/svg">
<path d="M15 18.3334C14.3056 18.3334 13.7153 18.0903 13.2292 17.6042C12.7431 17.1181 12.5 16.5278 12.5 15.8334C12.5 15.7361 12.5069 15.6353 12.5208 15.5309C12.5347 15.427 12.5556 15.3334 12.5833 15.25L6.70833 11.8334C6.47222 12.0417 6.20833 12.2047 5.91667 12.3225C5.625 12.4409 5.31944 12.5 5 12.5C4.30556 12.5 3.71528 12.257 3.22917 11.7709C2.74306 11.2847 2.5 10.6945 2.5 10C2.5 9.30558 2.74306 8.7153 3.22917 8.22919C3.71528 7.74308 4.30556 7.50002 5 7.50002C5.31944 7.50002 5.625 7.55891 5.91667 7.67669C6.20833 7.79502 6.47222 7.95835 6.70833 8.16669L12.5833 4.75002C12.5556 4.66669 12.5347 4.57308 12.5208 4.46919C12.5069 4.36474 12.5 4.26391 12.5 4.16669C12.5 3.47224 12.7431 2.88196 13.2292 2.39585C13.7153 1.90974 14.3056 1.66669 15 1.66669C15.6944 1.66669 16.2847 1.90974 16.7708 2.39585C17.2569 2.88196 17.5 3.47224 17.5 4.16669C17.5 4.86113 17.2569 5.45141 16.7708 5.93752C16.2847 6.42363 15.6944 6.66669 15 6.66669C14.6806 6.66669 14.375 6.60752 14.0833 6.48919C13.7917 6.37141 13.5278 6.20835 13.2917 6.00002L7.41667 9.41669C7.44444 9.50002 7.46528 9.59363 7.47917 9.69752C7.49306 9.80196 7.5 9.9028 7.5 10C7.5 10.0972 7.49306 10.1978 7.47917 10.3017C7.46528 10.4061 7.44444 10.5 7.41667 10.5834L13.2917 14C13.5278 13.7917 13.7917 13.6284 14.0833 13.51C14.375 13.3922 14.6806 13.3334 15 13.3334C15.6944 13.3334 16.2847 13.5764 16.7708 14.0625C17.2569 14.5486 17.5 15.1389 17.5 15.8334C17.5 16.5278 17.2569 17.1181 16.7708 17.6042C16.2847 18.0903 15.6944 18.3334 15 18.3334ZM15 5.00002C15.2361 5.00002 15.4339 4.9203 15.5933 4.76085C15.7533 4.60085 15.8333 4.4028 15.8333 4.16669C15.8333 3.93058 15.7533 3.73252 15.5933 3.57252C15.4339 3.41308 15.2361 3.33335 15 3.33335C14.7639 3.33335 14.5661 3.41308 14.4067 3.57252C14.2467 3.73252 14.1667 3.93058 14.1667 4.16669C14.1667 4.4028 14.2467 4.60085 14.4067 4.76085C14.5661 4.9203 14.7639 5.00002 15 5.00002ZM5 10.8334C5.23611 10.8334 5.43417 10.7534 5.59417 10.5934C5.75361 10.4339 5.83333 10.2361 5.83333 10C5.83333 9.76391 5.75361 9.56585 5.59417 9.40585C5.43417 9.24641 5.23611 9.16669 5 9.16669C4.76389 9.16669 4.56583 9.24641 4.40583 9.40585C4.24639 9.56585 4.16667 9.76391 4.16667 10C4.16667 10.2361 4.24639 10.4339 4.40583 10.5934C4.56583 10.7534 4.76389 10.8334 5 10.8334ZM15 16.6667C15.2361 16.6667 15.4339 16.5867 15.5933 16.4267C15.7533 16.2672 15.8333 16.0695 15.8333 15.8334C15.8333 15.5972 15.7533 15.3995 15.5933 15.24C15.4339 15.08 15.2361 15 15 15C14.7639 15 14.5661 15.08 14.4067 15.24C14.2467 15.3995 14.1667 15.5972 14.1667 15.8334C14.1667 16.0695 14.2467 16.2672 14.4067 16.4267C14.5661 16.5867 14.7639 16.6667 15 16.6667Z" fill="#AD9A7C"/>
</svg>
